<svg width="240" height="17" viewBox="0 0 240 17" fill="none" xmlns="http://www.w3.org/2000/svg">
<g clip-path="url(#clip0)">
<path d="M124.108 2.55023H128.879C129.193 2.55023 129.541 2.58725 129.922 2.6593C130.305 2.73185 130.66 2.88041 130.99 3.10398C131.32 3.32755 131.595 3.64439 131.813 4.05551C132.033 4.46662 132.143 5.00457 132.143 5.67035C132.143 6.64803 131.837 7.40264 131.225 7.93319C130.613 8.46325 129.748 8.72827 128.628 8.72827H124.8V13.6907H124.108V2.55023ZM124.8 8.13603H128.739C129.241 8.13603 129.666 8.06052 130.018 7.91C130.368 7.75947 130.647 7.56452 130.857 7.32467C131.067 7.0853 131.218 6.82028 131.313 6.52909C131.406 6.2384 131.452 5.94722 131.452 5.65554C131.452 5.44727 131.422 5.201 131.359 4.91425C131.296 4.6285 131.171 4.35261 130.983 4.08709C130.794 3.82157 130.53 3.5985 130.189 3.41638C129.85 3.23427 129.397 3.14296 128.832 3.14296H124.8V8.13603Z" fill="#49662D"/>
<path d="M139.221 12.1942C139.221 12.3082 139.224 12.4222 139.23 12.5372C139.235 12.6512 139.254 12.7543 139.284 12.8481C139.316 12.9409 139.368 13.0169 139.441 13.0741C139.515 13.1309 139.618 13.16 139.755 13.16C139.859 13.16 140.007 13.1442 140.195 13.1131V13.6274C140.111 13.6486 140.03 13.6644 139.952 13.6743C139.872 13.6851 139.792 13.6901 139.708 13.6901C139.469 13.6901 139.277 13.659 139.135 13.5963C138.995 13.5341 138.887 13.4512 138.814 13.3466C138.741 13.2434 138.691 13.1205 138.665 12.9799C138.639 12.8397 138.626 12.6867 138.626 12.5194V12.0984H138.595C138.5 12.3378 138.365 12.5643 138.187 12.777C138.009 12.9897 137.792 13.1797 137.536 13.3461C137.278 13.5129 136.988 13.6427 136.664 13.7365C136.34 13.8302 135.984 13.8766 135.598 13.8766C135.221 13.8766 134.867 13.8376 134.538 13.7596C134.208 13.6822 133.92 13.5548 133.675 13.3781C133.429 13.2015 133.239 12.9695 133.102 12.6833C132.967 12.3975 132.898 12.0417 132.898 11.6143C132.898 11.1469 132.989 10.7644 133.173 10.4678C133.356 10.1712 133.592 9.93674 133.879 9.76598C134.167 9.59374 134.486 9.47183 134.837 9.39929C135.187 9.32575 135.53 9.27393 135.864 9.24333C136.535 9.20187 137.055 9.15203 137.426 9.09478C137.797 9.03802 138.072 8.94918 138.25 8.83074C138.427 8.71081 138.537 8.55485 138.58 8.36188C138.621 8.16891 138.642 7.90734 138.642 7.57371C138.642 7.48043 138.611 7.34767 138.548 7.17592C138.485 7.00368 138.373 6.82946 138.211 6.65278C138.049 6.47658 137.821 6.3231 137.527 6.19231C137.234 6.063 136.857 5.99736 136.398 5.99736C135.676 5.99736 135.092 6.17948 134.649 6.54272C134.204 6.90744 133.96 7.43799 133.918 8.13485H133.323C133.363 7.25044 133.649 6.58714 134.177 6.14493C134.705 5.70322 135.446 5.48212 136.399 5.48212C136.754 5.48212 137.1 5.5142 137.434 5.57539C137.769 5.63857 138.069 5.74714 138.336 5.9031C138.603 6.05856 138.818 6.27177 138.98 6.54173C139.141 6.81169 139.223 7.15421 139.223 7.56877V12.1942H139.221ZM138.626 9.13426C138.51 9.26998 138.348 9.37115 138.138 9.43827C137.93 9.50688 137.692 9.55573 137.425 9.58683C137.159 9.61743 136.878 9.64408 136.585 9.66481C136.292 9.68553 136 9.71712 135.707 9.75808C134.995 9.84198 134.448 10.0211 134.068 10.2965C133.685 10.5719 133.493 11.0122 133.493 11.6148C133.493 12.1038 133.669 12.5169 134.019 12.8555C134.371 13.1936 134.902 13.3624 135.613 13.3624C136.292 13.3624 136.832 13.2404 137.23 12.9957C137.628 12.7514 137.931 12.471 138.139 12.1527C138.349 11.8363 138.482 11.5284 138.54 11.2328C138.597 10.9361 138.627 10.7363 138.627 10.6321V9.13426H138.626Z" fill="#49662D"/>
<path d="M140.148 5.67041H140.853L143.851 12.988L146.613 5.67041H147.289L143.836 14.5481C143.668 14.9434 143.515 15.2844 143.373 15.5702C143.231 15.8564 143.071 16.0667 142.894 16.2019C142.685 16.3682 142.433 16.4694 142.14 16.5059C141.848 16.5419 141.471 16.5607 141.011 16.5607V16.0459C141.44 16.0459 141.774 16.0124 142.015 15.9443C142.255 15.8762 142.48 15.7385 142.689 15.5307C142.804 15.4167 142.925 15.206 143.051 14.899C143.176 14.592 143.333 14.173 143.521 13.6429L140.148 5.67041Z" fill="#49662D"/>
<path d="M147.116 2.54993H147.821L150.741 12.9566H150.772L153.739 2.54993H154.601L157.613 12.9566H157.644L160.518 2.54993H161.254L158.038 13.6904H157.254L154.178 3.14266H154.147L151.117 13.6904H150.348L147.116 2.54993Z" fill="#49662D"/>
<path d="M162.558 4.15687V2.54993H163.155V4.15638H162.558V4.15687ZM162.558 13.6904V5.67053H163.155V13.6904H162.558Z" fill="#49662D"/>
<path d="M168.02 6.1853H166.261V11.7864C166.261 12.1092 166.298 12.3638 166.372 12.5509C166.444 12.7384 166.557 12.8786 166.709 12.9714C166.861 13.0656 167.043 13.1254 167.258 13.1515C167.473 13.1772 167.721 13.1851 168.004 13.1747V13.6895C167.7 13.7102 167.405 13.7072 167.117 13.6816C166.829 13.6559 166.576 13.5779 166.356 13.4471C166.137 13.3173 165.961 13.1219 165.829 12.8618C165.699 12.6022 165.644 12.2434 165.665 11.7854V6.1853H164.174V5.67055H165.665V3.17377H166.261V5.67055H168.02V6.1853Z" fill="#49662D"/>
<path d="M169.715 2.54993V7.38704H169.746C169.851 7.085 170 6.81701 170.193 6.58308C170.387 6.34914 170.612 6.14926 170.868 5.98294C171.124 5.81613 171.404 5.69176 171.708 5.60835C172.011 5.52544 172.32 5.48348 172.634 5.48348C173.104 5.48348 173.504 5.54073 173.834 5.65523C174.164 5.76973 174.432 5.92075 174.641 6.1083C174.851 6.29485 175.016 6.50608 175.137 6.73953C175.257 6.97395 175.343 7.21085 175.396 7.44972C175.448 7.68908 175.48 7.92055 175.489 8.14412C175.5 8.36769 175.505 8.56313 175.505 8.72846V13.6909H174.908V8.61939C174.908 8.41211 174.894 8.15942 174.861 7.86281C174.83 7.56619 174.74 7.27994 174.587 7.00455C174.435 6.72916 174.205 6.49227 173.897 6.29436C173.587 6.09695 173.161 5.99824 172.617 5.99824C172.168 5.99824 171.761 6.08115 171.401 6.24747C171.04 6.41429 170.734 6.64575 170.483 6.94187C170.231 7.23799 170.04 7.59186 169.91 8.00297C169.779 8.41408 169.714 8.86369 169.714 9.35229V13.6899H169.117V2.54993H169.715Z" fill="#49662D"/>
<path d="M177.483 2.54993H179.053L182.928 12.3174L186.789 2.54993H188.359V13.6904H187.292V4.06359H187.261L183.431 13.6904H182.426L178.582 4.06359H178.55V13.6904H177.483V2.54993H177.483Z" fill="#49662D"/>
<path d="M189.489 5.63904H190.541L193.208 12.5041L195.704 5.63904H196.692L193.177 14.9229C193.031 15.2659 192.896 15.5492 192.775 15.7732C192.657 15.9968 192.517 16.1735 192.36 16.3038C192.203 16.4341 192.023 16.5274 191.819 16.5846C191.615 16.6419 191.355 16.6705 191.043 16.6705C190.843 16.6601 190.689 16.6517 190.579 16.6468C190.468 16.6419 190.372 16.6236 190.288 16.592V15.7653C190.403 15.7861 190.516 15.8043 190.626 15.8201C190.736 15.8354 190.848 15.8433 190.964 15.8433C191.183 15.8433 191.364 15.8117 191.505 15.7495C191.646 15.6874 191.769 15.601 191.875 15.4924C191.979 15.3833 192.067 15.2501 192.141 15.0946C192.213 14.9382 192.293 14.7664 192.377 14.5799L192.72 13.6599L189.489 5.63904Z" fill="#49662D"/>
<path d="M197.854 2.54993H202.593C203.064 2.54993 203.517 2.59434 203.951 2.68219C204.384 2.77103 204.767 2.92156 205.097 3.13526C205.426 3.34846 205.69 3.62928 205.89 3.97772C206.087 4.32615 206.188 4.75997 206.188 5.28064C206.188 5.57183 206.14 5.85561 206.047 6.131C205.953 6.40639 205.819 6.65612 205.646 6.87969C205.473 7.10375 205.27 7.29327 205.034 7.44922C204.799 7.60469 204.535 7.71475 204.242 7.77693V7.80802C204.965 7.90179 205.539 8.19545 205.969 8.68947C206.397 9.18399 206.611 9.79499 206.611 10.5234C206.611 10.7934 206.572 11.1083 206.494 11.4671C206.416 11.8259 206.241 12.1718 205.969 12.5045C205.697 12.8376 205.293 13.1189 204.76 13.3469C204.226 13.5764 203.505 13.6909 202.594 13.6909H197.855V2.54993H197.854ZM198.921 7.43343H202.593C203.022 7.43343 203.393 7.38408 203.707 7.28537C204.021 7.18667 204.282 7.05144 204.492 6.87969C204.702 6.70794 204.858 6.50806 204.964 6.27906C205.067 6.05055 205.12 5.80576 205.12 5.54616C205.12 4.15243 204.278 3.45507 202.593 3.45507H198.92V7.43343H198.921ZM198.921 12.7848H202.593C202.992 12.7848 203.369 12.7512 203.723 12.6836C204.079 12.6165 204.392 12.4936 204.665 12.3174C204.937 12.1407 205.151 11.9034 205.308 11.6072C205.464 11.3106 205.543 10.939 205.543 10.4919C205.543 9.77376 205.286 9.23581 204.775 8.87652C204.261 8.51772 203.535 8.33808 202.593 8.33808H198.92V12.7848H198.921Z" fill="#49662D"/>
<path d="M208.04 8.10465C208.091 7.15855 208.419 6.47155 209.02 6.04464C209.623 5.61922 210.388 5.40552 211.32 5.40552C211.675 5.40552 212.03 5.43908 212.386 5.50718C212.742 5.5748 213.061 5.70213 213.344 5.88918C213.628 6.07623 213.856 6.33977 214.035 6.67686C214.213 7.01493 214.302 7.45516 214.302 7.99558V12.271C214.302 12.6654 214.495 12.8633 214.883 12.8633C214.988 12.8633 215.092 12.8426 215.197 12.8011V13.6278C215.081 13.649 214.979 13.6648 214.891 13.6747C214.801 13.6855 214.689 13.6904 214.553 13.6904C214.302 13.6904 214.101 13.6569 213.948 13.5888C213.796 13.5217 213.679 13.4254 213.595 13.3001C213.511 13.1757 213.457 13.0276 213.431 12.8554C213.405 12.6836 213.391 12.4936 213.391 12.2863H213.36C213.182 12.5464 213.002 12.7779 212.818 12.9803C212.635 13.1831 212.43 13.3548 212.206 13.4955C211.982 13.6357 211.722 13.7423 211.429 13.8153C211.138 13.8874 210.797 13.9244 210.409 13.9244C210.033 13.9244 209.68 13.877 209.35 13.7837C209.02 13.6904 208.733 13.5473 208.487 13.3548C208.241 13.1624 208.046 12.9176 207.906 12.621C207.766 12.3253 207.694 11.9739 207.694 11.5688C207.694 11.0066 207.82 10.5679 208.071 10.25C208.322 9.93319 208.654 9.69136 209.067 9.52405C209.48 9.35871 209.947 9.24125 210.464 9.17315C210.983 9.10652 211.508 9.04088 212.042 8.9782C212.24 8.95747 212.422 8.92885 212.584 8.89282C212.746 8.85679 212.879 8.80201 212.984 8.72847C213.089 8.65642 213.169 8.55179 213.227 8.41705C213.285 8.28232 213.313 8.10514 213.313 7.88651C213.313 7.55337 213.259 7.28045 213.149 7.06774C213.038 6.85404 212.888 6.68525 212.693 6.56038C212.499 6.43552 212.275 6.35014 212.019 6.30276C211.762 6.25637 211.488 6.23268 211.195 6.23268C210.578 6.23268 210.068 6.38074 209.664 6.67686C209.262 6.97396 209.05 7.44924 209.028 8.10465H208.04ZM213.312 9.29011H213.282C213.218 9.40461 213.098 9.48753 212.921 9.53935C212.742 9.59166 212.586 9.62818 212.45 9.64842C212.03 9.72146 211.599 9.78759 211.154 9.84386C210.71 9.90111 210.306 9.98698 209.939 10.101C209.573 10.216 209.272 10.3793 209.037 10.593C208.8 10.8058 208.684 11.1103 208.684 11.5056C208.684 11.7553 208.733 11.9764 208.833 12.1689C208.931 12.3609 209.064 12.5277 209.233 12.6683C209.401 12.8085 209.594 12.9151 209.813 12.9877C210.033 13.0602 210.258 13.0967 210.488 13.0967C210.865 13.0967 211.225 13.04 211.571 12.9255C211.916 12.8115 212.217 12.6447 212.474 12.426C212.731 12.2074 212.934 11.9424 213.086 11.6304C213.237 11.318 213.312 10.9647 213.312 10.5693V9.29011H213.312Z" fill="#49662D"/>
<path d="M216.263 5.63902H217.251V7.02783H217.282C217.376 6.78896 217.511 6.56736 217.682 6.36452C217.856 6.16217 218.056 5.99042 218.287 5.85026C218.518 5.7096 218.769 5.60053 219.041 5.52206C219.314 5.44408 219.59 5.40509 219.873 5.40509C220.438 5.40509 220.911 5.47813 221.293 5.62323C221.674 5.76882 221.981 5.97463 222.211 6.24015C222.441 6.50517 222.604 6.82992 222.697 7.21487C222.791 7.60032 222.838 8.03167 222.838 8.5104V13.6905H221.849V8.66635C221.849 8.32335 221.818 8.00354 221.756 7.70742C221.694 7.41031 221.582 7.15318 221.427 6.93504C221.27 6.71641 221.057 6.54416 220.79 6.4193C220.523 6.29493 220.191 6.23274 219.794 6.23274C219.397 6.23274 219.043 6.30283 218.734 6.44348C218.425 6.58365 218.162 6.77662 217.942 7.02042C217.722 7.26521 217.555 7.55591 217.44 7.89447C217.325 8.23254 217.262 8.59923 217.251 8.99455V13.691H216.263V5.63902Z" fill="#49662D"/>
<path d="M224.705 2.54993H225.696V9.53934L230.183 5.63895H231.501L228.049 8.6189L231.737 13.6899H230.498L227.296 9.3054L225.696 10.632V13.6899H224.705V2.54993Z" fill="#49662D"/>
<path d="M237.398 3.73944C237.398 4.88789 236.468 5.79994 235.289 5.79994C234.108 5.79994 233.167 4.88789 233.167 3.73944C233.167 2.5905 234.108 1.69177 235.302 1.69177C236.468 1.69177 237.398 2.5905 237.398 3.73944ZM233.694 3.73944C233.694 4.65099 234.385 5.37451 235.301 5.37451C236.192 5.38735 236.872 4.65099 236.872 3.75178C236.872 2.84022 236.192 2.10338 235.276 2.10338C234.385 2.10338 233.694 2.84072 233.694 3.73944ZM234.962 4.80103H234.485V2.75336C234.673 2.72819 234.937 2.69019 235.276 2.69019C235.665 2.69019 235.842 2.75336 235.98 2.85305C236.104 2.93992 236.193 3.08995 236.193 3.29032C236.193 3.53956 236.005 3.70144 235.768 3.77645V3.80162C235.967 3.86381 236.069 4.02618 236.13 4.30108C236.193 4.61299 236.242 4.72601 236.281 4.80103H235.779C235.716 4.72601 235.679 4.5513 235.615 4.30108C235.579 4.08837 235.454 3.98867 235.189 3.98867H234.963V4.80103H234.962ZM234.974 3.65208H235.201C235.464 3.65208 235.678 3.56473 235.678 3.353C235.678 3.16546 235.541 3.03961 235.238 3.03961C235.112 3.03961 235.025 3.05244 234.974 3.06478V3.65208Z" fill="#49662D"/>
</g>
<path d="M6.39939 10.7388C6.39939 11.4706 6.12949 12.0503 5.58969 12.4782C5.05388 12.906 4.34015 13.12 3.44847 13.12C2.37687 13.12 1.55517 13.002 0.983382 12.7661V12.1543C1.61515 12.4222 2.42085 12.5562 3.40049 12.5562C4.12023 12.5562 4.69002 12.3922 5.10986 12.0643C5.53371 11.7325 5.74563 11.2986 5.74563 10.7628C5.74563 10.4309 5.67566 10.157 5.53571 9.94113C5.39576 9.72121 5.16784 9.52128 4.85196 9.34135C4.53607 9.16141 4.07225 8.96748 3.46047 8.75956C2.5648 8.45167 1.94503 8.1198 1.60115 7.76393C1.26128 7.40406 1.09134 6.92624 1.09134 6.33045C1.09134 5.6747 1.34725 5.14089 1.85906 4.72904C2.37487 4.3132 3.03663 4.10527 3.84433 4.10527C4.66803 4.10527 5.44174 4.26122 6.16547 4.5731L5.94356 5.10091C5.21582 4.79702 4.52008 4.64507 3.85632 4.64507C3.20856 4.64507 2.69275 4.79502 2.30889 5.09491C1.92504 5.3948 1.73311 5.80265 1.73311 6.31846C1.73311 6.64234 1.79108 6.90824 1.90704 7.11617C2.027 7.32409 2.22093 7.51202 2.48883 7.67996C2.75673 7.8439 3.21656 8.04182 3.86832 8.27374C4.55207 8.50965 5.06588 8.73957 5.40975 8.96349C5.75363 9.1834 6.00353 9.43531 6.15948 9.71921C6.31942 9.9991 6.39939 10.339 6.39939 10.7388ZM10.7358 13.12C9.78814 13.12 9.04841 12.8281 8.51661 12.2443C7.9888 11.6605 7.7249 10.8428 7.7249 9.79118C7.7249 8.75156 7.98081 7.91987 8.49262 7.2961C9.00443 6.66833 9.69418 6.35445 10.5619 6.35445C11.3296 6.35445 11.9354 6.62235 12.3792 7.15815C12.823 7.69395 13.0449 8.42168 13.0449 9.34135V9.82117H8.34867C8.35667 10.7168 8.56459 11.4006 8.97244 11.8724C9.38429 12.3442 9.97207 12.5802 10.7358 12.5802C11.1077 12.5802 11.4335 12.5542 11.7134 12.5022C11.9973 12.4502 12.3552 12.3382 12.787 12.1663V12.7061C12.4192 12.866 12.0793 12.974 11.7674 13.03C11.4555 13.09 11.1117 13.12 10.7358 13.12ZM10.5619 6.88225C9.93409 6.88225 9.43027 7.09017 9.05041 7.50602C8.67055 7.91787 8.44863 8.51365 8.38466 9.29336H12.4152C12.4152 8.53764 12.2512 7.94786 11.9234 7.52402C11.5955 7.09617 11.1416 6.88225 10.5619 6.88225ZM17.4473 13.12C16.5157 13.12 15.7859 12.8261 15.2581 12.2383C14.7303 11.6505 14.4664 10.8308 14.4664 9.77919C14.4664 8.69958 14.7403 7.85989 15.2881 7.26011C15.8359 6.65633 16.5856 6.35445 17.5373 6.35445C18.1011 6.35445 18.6409 6.45241 19.1567 6.64834L18.9948 7.17614C18.431 6.98821 17.9411 6.89425 17.5253 6.89425C16.7256 6.89425 16.1198 7.14216 15.708 7.63797C15.2961 8.12979 15.0902 8.83953 15.0902 9.76719C15.0902 10.6469 15.2961 11.3366 15.708 11.8364C16.1198 12.3322 16.6956 12.5802 17.4353 12.5802C18.0271 12.5802 18.5769 12.4742 19.0847 12.2623V12.8141C18.6689 13.018 18.1231 13.12 17.4473 13.12ZM21.2019 6.4804V10.7028C21.2019 11.3586 21.3399 11.8364 21.6158 12.1363C21.8917 12.4322 22.3195 12.5802 22.8993 12.5802C23.675 12.5802 24.2448 12.3842 24.6087 11.9924C24.9766 11.6005 25.1605 10.9627 25.1605 10.0791V6.4804H25.7483V13H25.2445L25.1365 12.1003H25.1005C24.6767 12.7801 23.9229 13.12 22.8393 13.12C21.3559 13.12 20.6142 12.3262 20.6142 10.7388V6.4804H21.2019ZM30.4985 6.35445C30.7744 6.35445 31.0703 6.38244 31.3862 6.43841L31.2722 7.0082C31.0003 6.94023 30.7184 6.90624 30.4265 6.90624C29.8708 6.90624 29.4149 7.14216 29.059 7.61398C28.7032 8.08581 28.5252 8.68159 28.5252 9.40132V13H27.9315V6.4804H28.4353L28.4953 7.65597H28.5372C28.8051 7.17614 29.091 6.84027 29.3949 6.64834C29.6988 6.45241 30.0667 6.35445 30.4985 6.35445ZM35.3507 13.12C34.4031 13.12 33.6634 12.8281 33.1316 12.2443C32.6037 11.6605 32.3398 10.8428 32.3398 9.79118C32.3398 8.75156 32.5957 7.91987 33.1076 7.2961C33.6194 6.66833 34.3091 6.35445 35.1768 6.35445C35.9445 6.35445 36.5503 6.62235 36.9941 7.15815C37.438 7.69395 37.6599 8.42168 37.6599 9.34135V9.82117H32.9636C32.9716 10.7168 33.1795 11.4006 33.5874 11.8724C33.9992 12.3442 34.587 12.5802 35.3507 12.5802C35.7226 12.5802 36.0485 12.5542 36.3284 12.5022C36.6123 12.4502 36.9701 12.3382 37.402 12.1663V12.7061C37.0341 12.866 36.6942 12.974 36.3824 13.03C36.0705 13.09 35.7266 13.12 35.3507 13.12ZM35.1768 6.88225C34.549 6.88225 34.0452 7.09017 33.6654 7.50602C33.2855 7.91787 33.0636 8.51365 32.9996 9.29336H37.0301C37.0301 8.53764 36.8662 7.94786 36.5383 7.52402C36.2104 7.09617 35.7566 6.88225 35.1768 6.88225ZM45.2531 13.12C44.3214 13.12 43.5917 12.8261 43.0639 12.2383C42.5361 11.6505 42.2722 10.8308 42.2722 9.77919C42.2722 8.69958 42.5461 7.85989 43.0939 7.26011C43.6417 6.65633 44.3914 6.35445 45.3431 6.35445C45.9068 6.35445 46.4466 6.45241 46.9625 6.64834L46.8005 7.17614C46.2367 6.98821 45.7469 6.89425 45.3311 6.89425C44.5314 6.89425 43.9256 7.14216 43.5137 7.63797C43.1019 8.12979 42.896 8.83953 42.896 9.76719C42.896 10.6469 43.1019 11.3366 43.5137 11.8364C43.9256 12.3322 44.5014 12.5802 45.2411 12.5802C45.8329 12.5802 46.3827 12.4742 46.8905 12.2623V12.8141C46.4746 13.018 45.9288 13.12 45.2531 13.12ZM53.8839 9.7312C53.8839 10.7948 53.626 11.6265 53.1102 12.2263C52.5944 12.8221 51.8826 13.12 50.975 13.12C50.4032 13.12 49.8994 12.982 49.4635 12.7061C49.0277 12.4302 48.6938 12.0344 48.4619 11.5185C48.23 11.0027 48.114 10.407 48.114 9.7312C48.114 8.66759 48.3719 7.8399 48.8878 7.24812C49.4036 6.65234 50.1113 6.35445 51.011 6.35445C51.9066 6.35445 52.6084 6.65633 53.1162 7.26011C53.628 7.85989 53.8839 8.68359 53.8839 9.7312ZM48.7378 9.7312C48.7378 10.6269 48.9337 11.3266 49.3256 11.8304C49.7214 12.3302 50.2792 12.5802 50.999 12.5802C51.7187 12.5802 52.2745 12.3302 52.6664 11.8304C53.0622 11.3266 53.2601 10.6269 53.2601 9.7312C53.2601 8.83153 53.0602 8.13379 52.6604 7.63797C52.2645 7.14216 51.7067 6.89425 50.987 6.89425C50.2672 6.89425 49.7114 7.14216 49.3196 7.63797C48.9317 8.12979 48.7378 8.82754 48.7378 9.7312ZM60.2356 13V8.77156C60.2356 8.1158 60.0976 7.63997 59.8217 7.34408C59.5458 7.04419 59.118 6.89425 58.5382 6.89425C57.7585 6.89425 57.1867 7.09217 56.8228 7.48803C56.463 7.87988 56.283 8.51765 56.283 9.40132V13H55.6893V6.4804H56.1931L56.307 7.37407H56.343C56.7669 6.69432 57.5206 6.35445 58.6042 6.35445C60.0836 6.35445 60.8234 7.14815 60.8234 8.73557V13H60.2356ZM67.4809 13V8.77156C67.4809 8.1158 67.343 7.63997 67.0671 7.34408C66.7912 7.04419 66.3633 6.89425 65.7835 6.89425C65.0038 6.89425 64.432 7.09217 64.0682 7.48803C63.7083 7.87988 63.5284 8.51765 63.5284 9.40132V13H62.9346V6.4804H63.4384L63.5524 7.37407H63.5883C64.0122 6.69432 64.7659 6.35445 65.8495 6.35445C67.329 6.35445 68.0687 7.14815 68.0687 8.73557V13H67.4809ZM72.8129 13.12C71.8653 13.12 71.1256 12.8281 70.5938 12.2443C70.066 11.6605 69.8021 10.8428 69.8021 9.79118C69.8021 8.75156 70.058 7.91987 70.5698 7.2961C71.0816 6.66833 71.7713 6.35445 72.639 6.35445C73.4067 6.35445 74.0125 6.62235 74.4563 7.15815C74.9002 7.69395 75.1221 8.42168 75.1221 9.34135V9.82117H70.4258C70.4338 10.7168 70.6417 11.4006 71.0496 11.8724C71.4614 12.3442 72.0492 12.5802 72.8129 12.5802C73.1848 12.5802 73.5107 12.5542 73.7906 12.5022C74.0745 12.4502 74.4324 12.3382 74.8642 12.1663V12.7061C74.4963 12.866 74.1565 12.974 73.8446 13.03C73.5327 13.09 73.1888 13.12 72.8129 13.12ZM72.639 6.88225C72.0112 6.88225 71.5074 7.09017 71.1276 7.50602C70.7477 7.91787 70.5258 8.51365 70.4618 9.29336H74.4923C74.4923 8.53764 74.3284 7.94786 74.0005 7.52402C73.6726 7.09617 73.2188 6.88225 72.639 6.88225ZM79.5245 13.12C78.5928 13.12 77.8631 12.8261 77.3353 12.2383C76.8075 11.6505 76.5436 10.8308 76.5436 9.77919C76.5436 8.69958 76.8175 7.85989 77.3653 7.26011C77.9131 6.65633 78.6628 6.35445 79.6144 6.35445C80.1782 6.35445 80.718 6.45241 81.2339 6.64834L81.0719 7.17614C80.5081 6.98821 80.0183 6.89425 79.6025 6.89425C78.8027 6.89425 78.197 7.14216 77.7851 7.63797C77.3733 8.12979 77.1673 8.83953 77.1673 9.76719C77.1673 10.6469 77.3733 11.3366 77.7851 11.8364C78.197 12.3322 78.7728 12.5802 79.5125 12.5802C80.1043 12.5802 80.6541 12.4742 81.1619 12.2623V12.8141C80.746 13.018 80.2002 13.12 79.5245 13.12ZM84.4847 12.5922C84.8605 12.5922 85.1884 12.5602 85.4683 12.4962V12.976C85.1804 13.072 84.8485 13.12 84.4727 13.12C83.8969 13.12 83.471 12.966 83.1951 12.6581C82.9232 12.3502 82.7873 11.8664 82.7873 11.2067V6.99621H81.8216V6.64834L82.7873 6.37844L83.0872 4.90298H83.3931V6.4804H85.3064V6.99621H83.3931V11.1227C83.3931 11.6225 83.481 11.9924 83.657 12.2323C83.8329 12.4722 84.1088 12.5922 84.4847 12.5922ZM87.4716 13H86.8778V6.4804H87.4716V13ZM86.7938 4.66907C86.7938 4.28521 86.9198 4.09328 87.1717 4.09328C87.2956 4.09328 87.3916 4.14326 87.4596 4.24322C87.5315 4.34319 87.5675 4.48513 87.5675 4.66907C87.5675 4.849 87.5315 4.99095 87.4596 5.09491C87.3916 5.19887 87.2956 5.25085 87.1717 5.25085C86.9198 5.25085 86.7938 5.05692 86.7938 4.66907ZM95.0528 9.7312C95.0528 10.7948 94.7949 11.6265 94.2791 12.2263C93.7632 12.8221 93.0515 13.12 92.1438 13.12C91.572 13.12 91.0682 12.982 90.6324 12.7061C90.1966 12.4302 89.8627 12.0344 89.6308 11.5185C89.3988 11.0027 89.2829 10.407 89.2829 9.7312C89.2829 8.66759 89.5408 7.8399 90.0566 7.24812C90.5724 6.65234 91.2802 6.35445 92.1798 6.35445C93.0755 6.35445 93.7772 6.65633 94.285 7.26011C94.7969 7.85989 95.0528 8.68359 95.0528 9.7312ZM89.9067 9.7312C89.9067 10.6269 90.1026 11.3266 90.4944 11.8304C90.8903 12.3302 91.4481 12.5802 92.1678 12.5802C92.8876 12.5802 93.4434 12.3302 93.8352 11.8304C94.2311 11.3266 94.429 10.6269 94.429 9.7312C94.429 8.83153 94.2291 8.13379 93.8292 7.63797C93.4334 7.14216 92.8756 6.89425 92.1558 6.89425C91.4361 6.89425 90.8803 7.14216 90.4884 7.63797C90.1006 8.12979 89.9067 8.82754 89.9067 9.7312ZM101.404 13V8.77156C101.404 8.1158 101.266 7.63997 100.991 7.34408C100.715 7.04419 100.287 6.89425 99.7071 6.89425C98.9273 6.89425 98.3555 7.09217 97.9917 7.48803C97.6318 7.87988 97.4519 8.51765 97.4519 9.40132V13H96.8581V6.4804H97.3619L97.4759 7.37407H97.5119C97.9357 6.69432 98.6894 6.35445 99.773 6.35445C101.252 6.35445 101.992 7.14815 101.992 8.73557V13H101.404ZM110.047 6.35445C110.959 6.35445 111.645 6.64234 112.104 7.21813C112.568 7.78992 112.8 8.62761 112.8 9.7312C112.8 10.8148 112.556 11.6505 112.069 12.2383C111.585 12.8261 110.903 13.12 110.023 13.12C109.559 13.12 109.142 13.024 108.77 12.8321C108.398 12.6401 108.104 12.3682 107.888 12.0164H107.834L107.666 13H107.294V3.66743H107.888V6.01257C107.888 6.36444 107.88 6.68832 107.864 6.98421L107.846 7.49403H107.888C108.136 7.10217 108.434 6.81428 108.782 6.63034C109.134 6.44641 109.555 6.35445 110.047 6.35445ZM110.035 6.89425C109.268 6.89425 108.718 7.11417 108.386 7.554C108.054 7.99384 107.888 8.71958 107.888 9.7312V9.83317C107.888 10.8168 108.06 11.5225 108.404 11.9504C108.752 12.3782 109.292 12.5922 110.023 12.5922C110.735 12.5922 111.271 12.3442 111.631 11.8484C111.991 11.3486 112.17 10.6389 112.17 9.71921C112.17 7.8359 111.459 6.89425 110.035 6.89425ZM113.52 6.4804H114.132L115.511 10.1391C115.931 11.2626 116.197 12.0204 116.309 12.4122H116.345C116.513 11.8964 116.787 11.1267 117.167 10.1031L118.546 6.4804H119.158L116.237 14.0556C116.001 14.6714 115.803 15.0872 115.643 15.3032C115.483 15.5191 115.295 15.681 115.079 15.789C114.867 15.8969 114.61 15.9509 114.306 15.9509C114.078 15.9509 113.824 15.9089 113.544 15.825V15.3092C113.776 15.3731 114.026 15.4051 114.294 15.4051C114.498 15.4051 114.678 15.3571 114.833 15.2612C114.989 15.1652 115.129 15.0153 115.253 14.8113C115.381 14.6114 115.527 14.2915 115.691 13.8517C115.859 13.4158 115.967 13.132 116.015 13L113.52 6.4804Z" fill="#343434"/>
<defs>
<clipPath id="clip0">
<rect width="116.693" height="15.793" fill="white" transform="translate(122.275 0.87738)"/>
</clipPath>
</defs>
</svg>
